<?xml version="1.0" encoding="UTF-8" standalone="no"?>
<svg
   xmlns:dc="http://purl.org/dc/elements/1.1/"
   xmlns:cc="http://creativecommons.org/ns#"
   xmlns:rdf="http://www.w3.org/1999/02/22-rdf-syntax-ns#"
   xmlns:svg="http://www.w3.org/2000/svg"
   xmlns="http://www.w3.org/2000/svg"
   width="132.29167cm"
   height="132.29167cm"
   viewBox="0 0 1322.9167 1322.9167"
   version="1.1"
   id="svg8">
  <defs
     id="defs2">
    <clipPath
       id="clipPath4102-3"
       clipPathUnits="userSpaceOnUse">
      <path
         id="path4100-8"
         d="m 757.908,697.899 h 85.146 V 425.722 h -85.146 z" />
    </clipPath>
    <clipPath
       id="clipPath4102-3-1"
       clipPathUnits="userSpaceOnUse">
      <path
         id="path4100-8-1"
         d="m 757.908,697.899 h 85.146 V 425.722 h -85.146 z" />
    </clipPath>
  </defs>
  <metadata
     id="metadata5">
    <rdf:RDF>
      <cc:Work
         rdf:about="">
        <dc:format>image/svg+xml</dc:format>
        <dc:type
           rdf:resource="http://purl.org/dc/dcmitype/StillImage" />
        <dc:title />
      </cc:Work>
    </rdf:RDF>
  </metadata>
  <g
     id="layer1"
     transform="translate(2367.2956,406.20577)">
    <g
       id="fr_banana"
       transform="matrix(1.7857144,0,0,1.7857144,-137.85602,319.16169)"
       style="stroke-width:0.56">
      <g
         id="g1275"
         transform="translate(0,68.420999)"
         style="stroke-width:0.56">
        <path
           id="path846"
           d="m -1248.4861,-474.62675 h 740.8333 V 266.2066 h -740.8333 z"
           style="vector-effect:none;fill:#fbe443;fill-opacity:1;fill-rule:nonzero;stroke:none;stroke-width:1.95999;stroke-linecap:square;stroke-linejoin:miter;stroke-miterlimit:4;stroke-dasharray:none;stroke-dashoffset:0;stroke-opacity:1;paint-order:markers stroke fill" />
        <path
           style="color:#000000;font-style:normal;font-variant:normal;font-weight:normal;font-stretch:normal;font-size:medium;line-height:normal;font-family:sans-serif;font-variant-ligatures:normal;font-variant-position:normal;font-variant-caps:normal;font-variant-numeric:normal;font-variant-alternates:normal;font-feature-settings:normal;text-indent:0;text-align:start;text-decoration:none;text-decoration-line:none;text-decoration-style:solid;text-decoration-color:#000000;letter-spacing:normal;word-spacing:normal;text-transform:none;writing-mode:lr-tb;direction:ltr;text-orientation:mixed;dominant-baseline:auto;baseline-shift:baseline;text-anchor:start;white-space:normal;shape-padding:0;clip-rule:evenodd;display:inline;overflow:visible;visibility:visible;isolation:auto;mix-blend-mode:normal;color-interpolation:sRGB;color-interpolation-filters:linearRGB;solid-color:#000000;solid-opacity:1;vector-effect:none;fill:#c7b641;fill-opacity:1;fill-rule:evenodd;stroke:none;stroke-width:2.63736;stroke-linecap:round;stroke-linejoin:round;stroke-miterlimit:4;stroke-dasharray:none;stroke-dashoffset:0;stroke-opacity:1;color-rendering:auto;image-rendering:optimizeQuality;shape-rendering:geometricPrecision;text-rendering:geometricPrecision;enable-background:accumulate"
           d="m -710.59063,-314.82354 c -0.96425,-0.10161 -1.91521,-0.16182 -2.8548,-0.18463 v 0 c -3.75869,-0.0908 -7.31246,0.40681 -10.61961,0.98275 -6.61432,1.15202 -12.46452,3.09792 -16.45936,4.49849 a 13.130375,13.130378 7.3618338 0 0 -7.80818,7.42381 13.130375,13.130378 7.3618338 0 0 -0.63296,7.96488 c 2.29892,9.78989 8.17129,22.99342 13.05925,37.11418 2.44401,7.06036 4.57768,13.99307 5.69404,19.28988 1.1164,5.29692 0.12517,9.31271 1.09021,6.95614 a 13.130375,13.130378 7.3618338 0 0 -0.1148,0.28151 c -39.30532,102.64332 -90.04403,165.665349 -146.91867,203.948132 -56.37221,37.944845 -119.42135,51.842979 -185.30929,53.938779 -7.6439,-1.530956 -14.8438,-5.138752 -25.9515,-9.382929 a 13.130375,13.130378 7.3618338 0 0 -17.6039,9.961179 c -1.548,8.68619 -4.1727,18.191258 -6.0118,28.510798 a 13.130375,13.130378 7.3618338 0 0 7.1584,14.097438 c 12.3522,6.037938 20.0346,9.244149 29.9761,11.918078 68.1685,45.112095 133.75252,59.547525 191.83157,51.917515 58.34082,-7.66448 108.61525,-37.215603 146.99888,-77.362357 75.87603,-79.361422 107.78102,-200.491623 64.60539,-286.850423 -0.14959,-5.15824 -1.23727,-9.36231 -2.72117,-14.72787 -1.91356,-6.91996 -4.52074,-14.84235 -7.29063,-22.77875 -5.5397,-15.87262 -11.78861,-31.9214 -13.94914,-37.69828 a 13.130375,13.130378 7.3618338 0 0 -7.17945,-7.49226 c -3.09509,-1.31259 -6.09391,-2.01751 -8.9861,-2.32618 z"
           id="path1730" />
        <path
           id="path1701"
           d="m -737.53381,-337.76278 c -0.95157,-0.10027 0.12267,-0.1822 0.12267,-0.1822 v 0 c 0,0 -7.21634,0.40141 -10.48005,0.96984 -6.52741,1.13688 -12.30067,3.05722 -16.24307,4.43937 -3.49831,1.22732 -6.30338,3.89429 -7.70558,7.32625 -1.01984,2.4915 -1.23835,5.23878 -0.62515,7.86016 2.26877,9.66119 8.0639,22.69125 12.88763,36.62646 2.41195,6.96758 4.51752,13.80919 5.61927,19.03639 1.10173,5.22727 0.12349,9.19028 1.07589,6.86473 -0.0388,0.0922 -0.0766,0.18477 -0.1133,0.27781 -38.7888,101.29449 -91.80066,166.512161 -147.92792,204.29187 -55.63147,37.446205 -117.85208,51.16165063 -182.87418,53.2299679 -7.5436,-1.5108437 -14.6488,-5.0712239 -25.6105,-9.2596281 -7.5921,-2.8947011 -15.9445,1.8315132 -17.3725,9.8302793 -1.5277,8.5719939 -4.1178,17.9522069 -5.9329,28.1361319 -1.0141,5.694314 1.8686,11.371159 7.0644,13.912183 12.1898,5.9586 19.7714,9.122678 29.5821,11.761418 67.2728,44.519318 131.995,55.741248 189.31078,48.211498 57.57421,-7.563747 107.18794,-36.726549 145.06722,-76.345727 74.87894,-78.318535 106.36467,-197.856963 63.75641,-283.080933 -0.14767,-5.0905 -1.22106,-9.23928 -2.68541,-14.53432 -1.88841,-6.82907 -4.46134,-14.6473 -7.19482,-22.47946 -5.46695,-15.66406 -11.6337,-31.50187 -13.76588,-37.2029 -1.24635,-3.33283 -3.80838,-6.00649 -7.08507,-7.39375 -3.05446,-1.29534 -6.01387,-1.991 -8.86805,-2.29566 z"
           style="color:#000000;font-style:normal;font-variant:normal;font-weight:normal;font-stretch:normal;font-size:medium;line-height:normal;font-family:sans-serif;font-variant-ligatures:normal;font-variant-position:normal;font-variant-caps:normal;font-variant-numeric:normal;font-variant-alternates:normal;font-feature-settings:normal;text-indent:0;text-align:start;text-decoration:none;text-decoration-line:none;text-decoration-style:solid;text-decoration-color:#000000;letter-spacing:normal;word-spacing:normal;text-transform:none;writing-mode:lr-tb;direction:ltr;text-orientation:mixed;dominant-baseline:auto;baseline-shift:baseline;text-anchor:start;white-space:normal;shape-padding:0;clip-rule:evenodd;display:inline;overflow:visible;visibility:visible;isolation:auto;mix-blend-mode:normal;color-interpolation:sRGB;color-interpolation-filters:linearRGB;solid-color:#000000;solid-opacity:1;vector-effect:none;fill:#1a1a1a;fill-opacity:1;fill-rule:evenodd;stroke:none;stroke-width:2.63736;stroke-linecap:round;stroke-linejoin:round;stroke-miterlimit:4;stroke-dasharray:none;stroke-dashoffset:0;stroke-opacity:1;color-rendering:auto;image-rendering:optimizeQuality;shape-rendering:geometricPrecision;text-rendering:geometricPrecision;enable-background:accumulate" />
        <path
           style="clip-rule:evenodd;fill:#fbe443;fill-opacity:1;fill-rule:evenodd;stroke-width:0.00496814;image-rendering:optimizeQuality;shape-rendering:geometricPrecision;text-rendering:geometricPrecision"
           class="fil29"
           d="m -760.88651,-323.04072 c 3.05754,13.02013 24.36777,58.7296 19.20558,71.33368 -80.03489,209.006415 -209.60467,262.562712 -345.85587,266.457187 -10.371,-1.845692 -18.6427,-6.323598 -29.2655,-10.3823865 -1.6936,9.5029185 -4.3178,19.0148585 -6.0114,28.5179355 13.7422,6.717431 20.0685,9.808662 30.5738,12.262629 265.4318,176.675145 467.76499,-138.894351 384.19607,-297.902655 1.23585,-10.42278 -18.84121,-61.40104 -23.38618,-73.55322 -8.43622,-3.57759 -21.98428,0.64645 -29.45619,3.26606 z"
           id="path1219" />
        <path
           id="path1227"
           d="m -724.3819,-254.3241 -27.89098,-71.41119 c -3.22674,0.85897 -6.24057,1.83749 -8.61363,2.69457 2.75709,11.7905 20.46149,50.2748 19.98429,66.85249 z"
           class="fil30"
           style="clip-rule:evenodd;fill:#e2b659;fill-opacity:1;fill-rule:evenodd;stroke-width:0.00496814;image-rendering:optimizeQuality;shape-rendering:geometricPrecision;text-rendering:geometricPrecision" />
        <path
           id="path1662"
           d="m -724.38187,-254.32522 -16.53602,-1.36401 c -0.0792,1.54102 -0.32106,2.89388 -0.76431,3.98331 -80.03506,209.006506 -209.60381,262.561433 -345.855,266.455914 -10.3709,-1.845692 -18.6428,-6.3249052 -29.2656,-10.3837992 -0.4713,2.6458832 -1.0217,5.2938456 -1.5973,7.9406332 l 27.3824,12.281197 c 0,0 60.3402,53.814208 208.1257,-8.294448 147.78574,-62.108675 158.50976,-270.618847 158.50976,-270.618847 z"
           style="fill:#fceb74;fill-opacity:1;stroke:none;stroke-width:0.148166px;stroke-linecap:butt;stroke-linejoin:miter;stroke-opacity:1" />
        <path
           id="path1669"
           d="m -752.27283,-325.73528 27.89098,71.41119 -22.57228,-78.06162 z"
           style="fill:#1a1a1a;fill-opacity:1;stroke:none;stroke-width:0.148166px;stroke-linecap:butt;stroke-linejoin:miter;stroke-opacity:1" />
        <path
           style="clip-rule:evenodd;fill:#1d1a13;fill-opacity:1;fill-rule:evenodd;stroke-width:0.00496814;image-rendering:optimizeQuality;shape-rendering:geometricPrecision;text-rendering:geometricPrecision"
           class="fil12"
           d="m -1111.063,11.397973 -7.9891,-3.4852239 c -2.0124,10.3417399 -4.7562,20.7532339 -6.5858,31.0777959 12.8388,6.32046 20.1961,9.9601 28.8494,12.638244 0.7628,-2.773547 1.4806,-5.43041 2.1168,-7.76344 1.7175,-6.272441 2.789,-10.5273 2.9955,-14.141691 0.1919,-3.575654 -0.4955,-6.471409 -1.8465,-8.55921 -1.3898,-2.102682 -3.4352,-3.305113 -6.467,-4.804101 -3.0318,-1.499583 -7.1179,-3.233365 -11.074,-4.961821 z"
           id="path1221" />
        <path
           id="path1671"
           d="m -1091.6762,29.723552 c 0,0 30.8609,14.956256 71.1595,16.419223 0,0 -62.348,-5.378256 -78.9695,-28.834736 z"
           style="fill:#1d1a13;fill-opacity:1;stroke:none;stroke-width:0.148166px;stroke-linecap:butt;stroke-linejoin:miter;stroke-opacity:1" />
        <path
           id="path1675"
           d="m -703.5143,-243.31992 c 20.2326,155.751166 -125.71233,366.14081 -330.9118,319.852469 231.05785,97.325251 396.69097,-170.413271 330.9118,-319.852469 z"
           style="clip-rule:evenodd;opacity:1;fill:#e6d13d;fill-opacity:1;fill-rule:evenodd;stroke-width:0.00496814;image-rendering:optimizeQuality;shape-rendering:geometricPrecision;text-rendering:geometricPrecision" />
        <path
           id="path1688"
           d="m -738.40517,-48.347609 c 0,0 -47.10297,101.06243 -153.56516,125.396659 0,0 104.54831,8.138623 153.56516,-125.396659 z"
           style="fill:#d5c23a;fill-opacity:1;stroke:none;stroke-width:0.148166px;stroke-linecap:butt;stroke-linejoin:miter;stroke-opacity:1" />
        <path
           id="path1690"
           d="m -724.38187,-254.32522 -16.53602,-1.36401 c -0.0792,1.54102 -0.32106,2.89388 -0.76431,3.98331 -42.49056,110.96137 -98.94316,178.105806 -162.94402,217.268134 61.23686,-27.519796 120.06104,-74.068884 143.80038,-152.845244 0,0 13.11273,-11.03936 -3.25433,38.92433 -16.36685,49.963759 -40.93655,103.40627 -40.93655,103.40627 0,0 28.35555,-29.285095 51.54825,-83.3668 25.95988,-65.51968 29.08623,-126.00604 29.08623,-126.00604 z"
           style="fill:#f6e56f;fill-opacity:1;stroke:none;stroke-width:0.148166px;stroke-linecap:butt;stroke-linejoin:miter;stroke-opacity:1" />
        <path
           id="path1673"
           d="m -708.04387,-252.75445 -16.33798,-1.56964 c 0,0 -23.48953,151.97473 -80.63448,209.371978 0,0 81.91744,-88.316018 80.63448,-209.371978 l 20.16026,6.60083 z"
           style="fill:#1a1a1a;fill-opacity:1;stroke:none;stroke-width:0.148166px;stroke-linecap:butt;stroke-linejoin:miter;stroke-opacity:1" />
        <path
           id="path1682"
           d="m -944.0412,-4.309132 c 8.52008,7.5092793 68.58692,-10.818966 87.85191,-50.752189 19.26503,-39.933164 -17.91213,7.980654 -47.7421,22.557731 -29.83016,14.576998 -48.62989,20.685179 -40.10981,28.194458 z"
           style="fill:#fdf3ab;fill-opacity:1;stroke:none;stroke-width:0.148166px;stroke-linecap:butt;stroke-linejoin:miter;stroke-opacity:1" />
        <path
           style="fill:#1a1a1a;fill-opacity:1;stroke:none;stroke-width:0.148166px;stroke-linecap:butt;stroke-linejoin:miter;stroke-opacity:1"
           d="m -845.38053,-11.285818 c 0,0 -55.08803,40.790526 -103.86843,53.406228 0,0 44.57512,-2.102639 103.86843,-53.406228 z"
           id="path7612" />
      </g>
    </g>
  </g>
</svg>
