<?xml version='1.0' encoding='utf-8'?>
<svg xmlns="http://www.w3.org/2000/svg" width="1325.6mm" height="1325.6mm" version="1.1" viewBox="0 0 1325.6 1325.6"> <g transform="translate(1978.3 -2002.8)"> <g transform="matrix(20.126 0 0 20.126 1748.2 839.58)" stroke-width=".049686"> <path d="m-185.16 57.794h65.862v65.862h-65.862z" fill="#424364" stop-color="#000000" stroke-linecap="round" stroke-linejoin="round" stroke-width=".03478"/> <path d="m-162.38 74.18c-0.12714-2e-3 -0.25498 0.0205-0.38964 0.08785-0.30219 0.15112-0.3851 0.40718-0.47129 0.68213-0.0862 0.27496-0.14494 0.60549-0.19121 0.98288-0.0926 0.75479-0.12925 1.6921-0.13849 2.6153-0.0179 1.7863 0.0646 3.4026 0.0703 3.5135-0.19474 0.22428-2.6355 3.0859-2.1699 7.4838 0.22718 2.1461-0.0792 3.5632-0.51832 4.5723-0.43902 1.0092-1.0126 1.6058-1.4087 2.1503-0.20575 0.2828-0.21491 0.59256-0.20051 0.99839 0.0144 0.40584 0.0937 0.89897 0.24908 1.4614 0.31084 1.1249 0.92984 2.5194 1.9859 3.9207 2.1122 2.8026 5.9839 5.6149 12.523 6.2466 6.553 0.63309 11.105-1.7348 13.757-4.5222 1.326-1.3937 2.1818-2.8864 2.5921-4.1817 0.20514-0.64762 0.29995-1.247 0.27543-1.772-0.0245-0.52496-0.16907-0.99221-0.49557-1.3188-1.178-1.1783-1.2034-3.0511-1.1033-5.1542 0.0147-0.3078 0.0308-0.61987 0.046-0.93328 0.51038-0.368 0.9719-0.72317 1.3518-1.0454 0.34154-0.28967 0.61685-0.55115 0.81752-0.79168 0.10033-0.12026 0.18388-0.23332 0.2465-0.36328 0.0626-0.12996 0.12334-0.29528 0.0605-0.50591-0.0995-0.33308-0.36966-0.45172-0.61805-0.5364-0.24839-0.08469-0.54231-0.1343-0.89348-0.17156-0.31666-0.0336-0.68136-0.05428-1.0821-0.06563-0.10249-0.56556-0.26204-1.1147-0.51056-1.6335 0.0787-0.14302 0.70884-1.278 1.3146-2.7228 0.32136-0.76642 0.61651-1.5772 0.77928-2.3068 0.16276-0.72962 0.23986-1.3926-0.10336-1.91-0.1741-0.26245-0.45256-0.40088-0.7431-0.47284-0.29053-0.07197-0.61234-0.08678-0.9617-0.07131-0.69871 0.03089-1.5088 0.18915-2.2913 0.38292-1.4641 0.36257-2.6523 0.80537-2.822 0.86765-0.46863-0.3397-6.7818-4.777-13.029-2.4629-0.13129-0.0866-1.2355-0.82012-2.5818-1.5896-0.7119-0.40689-1.4515-0.8011-2.0877-1.0728-0.31811-0.13584-0.60882-0.24167-0.8723-0.3023-0.13174-0.03031-0.25836-0.05687-0.3855-0.05891zm-0.0181 0.79323c8e-3 -1.12e-4 0.016 4.44e-4 0.0274 5.16e-4 -8e-3 -1.6e-5 -0.0209-5.98e-4 -0.0274-5.16e-4zm0.21601 0.0217c5e-3 9.77e-4 8e-3 9.95e-4 0.0124 0.0021 0.14167 0.03259 0.32341 0.09222 0.52865 0.1726-0.0683-0.02675-0.13395-0.05097-0.19637-0.07286-1.7e-4 -5.8e-5 -3.5e-4 5.9e-5 -5.2e-4 0-0.0624-0.02187-0.12137-0.04129-0.17673-0.05788-1.7e-4 -5e-5 -3.4e-4 5.3e-5 -5.2e-4 0-0.0553-0.01656-0.10686-0.03048-0.15399-0.04134-1.8e-4 -4e-5 -3.4e-4 4.2e-5 -5.2e-4 0-4e-3 -1e-3 -8e-3 -0.0016-0.0124-0.0026zm-0.47749 1.0263c-2.2e-4 2e-3 -2.7e-4 0.0042-5.2e-4 0.0062-1e-3 0.01113-2e-3 0.02338-4e-3 0.03462 1e-3 -0.01086 2e-3 -0.02386 3e-3 -0.03462 2.7e-4 -0.0022 7.7e-4 -4e-3 1e-3 -0.0062zm-0.0925 1.1322c-1e-3 0.02038-2e-3 0.03996-3e-3 0.06046-2e-3 0.03297-3e-3 0.06699-4e-3 0.10025 2e-3 -0.05398 4e-3 -0.10752 7e-3 -0.16071zm10.071 0.16071c0.0934 6.35e-4 0.18659 0.0028 0.27957 0.0057-0.093-0.0029-0.18613-0.0045-0.27957-0.0052-0.0928-6.3e-4 -0.1859-1.59e-4 -0.27905 0.0015 0.0933-0.0017 0.18612-0.0027 0.27905-0.0021zm-0.87023 0.02946c-0.17032 0.01257-0.3411 0.02934-0.51211 0.05064 0.17101-0.02132 0.34179-0.03807 0.51211-0.05064zm2.2128 0.05736c0.0248 3e-3 0.0496 0.0062 0.0744 0.0093-0.0116-0.0015-0.023-0.0032-0.0346-0.0046-1.7e-4 -2.1e-5 -3.5e-4 1.9e-5 -5.2e-4 0-0.0131-0.0016-0.0262-0.0031-0.0393-0.0047zm-3.3274 0.08682c-0.1677 0.03154-0.33563 0.06854-0.50333 0.10955 0.16787-0.04106 0.33546-0.07798 0.50333-0.10955zm-0.64751 0.14625c-0.16472 0.04305-0.32915 0.08981-0.49351 0.14263 0.16419-0.05276 0.32896-0.09961 0.49351-0.14263zm-7.4631 0.13952c-1e-3 0.03437-2e-3 0.06832-3e-3 0.10284-6e-3 0.22484-0.0101 0.4526-0.0124 0.67954-2e-3 0.22625-3e-3 0.4514-3e-3 0.67283-7.4e-4 -0.22127-2e-4 -0.44675 2e-3 -0.67283 3e-3 -0.26217 8e-3 -0.52376 0.016-0.78238zm6.4012 0.20671-0.18758 0.07441h-5.2e-4v-5.16e-4zm18.318 1.2097c0.13912 9.98e-4 0.26508 0.0095 0.37311 0.02481-0.0539-0.0076-0.11241-0.0134-0.17467-0.01757-1.6e-4 -1e-5 -3.5e-4 1.1e-5 -5.2e-4 0-0.0623-0.0042-0.12844-0.0067-0.19792-0.0072zm0.62477 0.08475c8e-3 0.0028 0.0151 0.0054 0.0222 0.0083-3e-3 -0.0014-6e-3 -0.0028-0.01-0.0041-1.4e-4 -5.3e-5 -3.7e-4 5.5e-5 -5.1e-4 0-4e-3 -0.0014-8e-3 -0.0027-0.0119-0.0041zm-0.0202 2.126c-0.0364 0.11666-0.0745 0.23478-0.11576 0.3545 0.0226-0.06575 0.0433-0.13093 0.0646-0.19586 0.0174-0.05331 0.0347-0.10604 0.0512-0.15865zm-0.3204 0.91416c-0.0206 0.05339-0.043 0.10632-0.0641 0.15968 2e-3 -0.0046 3e-3 -0.0093 5e-3 -0.01395 0.0192-0.04873 0.0401-0.09698 0.0589-0.14573zm-0.0656 0.1633c-0.0526 0.13302-0.10504 0.26637-0.16019 0.39791-0.0778 0.18551-0.15755 0.36837-0.2372 0.54674 0.0796-0.17836 0.1589-0.36122 0.23668-0.54674 0.0552-0.13156 0.10807-0.26488 0.16071-0.39791zm-0.6351 1.4635c-0.15638 0.33326-0.30645 0.63827-0.43718 0.8971 0.13072-0.25884 0.2808-0.56384 0.43718-0.8971zm-0.88522 2.1182c0.0524 0.09851 0.10097 0.19901 0.14573 0.30179-0.0223-0.05131-0.0461-0.10218-0.0703-0.15244-0.0243-0.0504-0.0492-0.10003-0.0754-0.14934zm0.5669 5.8498c-0.01 0.20105-0.0173 0.4021-0.0243 0.60306 6e-3 -0.17122 0.0122-0.34282 0.0202-0.51418 1e-3 -0.02962 3e-3 -0.05927 4e-3 -0.08888zm-0.0398 1.1948c-1e-3 0.132-2e-3 0.2633 0 0.39429-3e-4 -0.02606-3.4e-4 -0.05244-5.1e-4 -0.07855-7.1e-4 -0.10494-6.6e-4 -0.21018 5.1e-4 -0.31574zm0 0.39481c2e-3 0.13081 5e-3 0.26123 0.01 0.39067 5e-3 0.12962 0.0126 0.25864 0.0222 0.38654 0.01 0.1279 0.0215 0.25452 0.0362 0.38034 0.0146 0.12582 0.0318 0.25075 0.0522 0.37414-0.0185-0.11162-0.0338-0.22486-0.0475-0.33848-1e-3 -0.01191-3e-3 -0.02372-5e-3 -0.03565-2e-3 -0.01495-3e-3 -0.02998-5e-3 -0.04496-0.0107-0.09611-0.0202-0.19258-0.0279-0.28991-1e-3 -0.01518-2e-3 -0.03027-4e-3 -0.04547-1e-3 -0.01577-2e-3 -0.03175-3e-3 -0.04754-8e-3 -0.11237-0.0145-0.22532-0.0191-0.339-4e-3 -0.10819-7e-3 -0.21692-9e-3 -0.32608-3.5e-4 -0.02157-7.8e-4 -0.043-1e-3 -0.06459zm0.8909 3.5734c0.0331 0.04842 0.0673 0.09582 0.10284 0.14314-5e-3 -0.0067-0.01-0.01345-0.015-0.02015-0.0301-0.04063-0.0595-0.08156-0.0879-0.12299zm-29.079 0.04806c-1e-3 0.03705-9.5e-4 0.07605 5.2e-4 0.11679 2.7e-4 0.0078 6.9e-4 0.01641 1e-3 0.02429-3.2e-4 -0.0076-1e-3 -0.01684-2e-3 -0.02429-1e-3 -0.04074-1e-3 -0.07974 0-0.11679zm0.12041 0.99219c3e-3 0.01242 5e-3 0.02416 8e-3 0.03669 3e-3 0.01381 7e-3 0.02843 0.01 0.04238-6e-3 -0.02663-0.0119-0.05294-0.0176-0.07906zm28.59 3.7264c-0.10038 0.16525-0.20775 0.33171-0.32195 0.49868s-0.23518 0.33442-0.36328 0.50178c0.12811-0.16736 0.24908-0.33481 0.36328-0.50178 0.11421-0.16697 0.22156-0.33343 0.32195-0.49868zm-0.88263 1.2511c-0.13509 0.16705-0.27722 0.33375-0.42634 0.49919 0.14912-0.16544 0.29124-0.33214 0.42634-0.49919zm-0.65526 0.74672c-0.0781 0.0821-0.1582 0.16365-0.23978 0.24495 0.0815-0.0812 0.16178-0.16297 0.23978-0.24495zm-0.48989 0.48731c-0.1701 0.16066-0.34701 0.31939-0.53124 0.47542 0.18423-0.15604 0.36114-0.31476 0.53124-0.47542zm-1.7234 1.3761c-0.2129 0.14308-0.43301 0.28227-0.66043 0.41703 0.22754-0.13484 0.44742-0.27386 0.66043-0.41703zm-4.7847 2.0634c-0.10071 0.0238-0.20097 0.0476-0.30334 0.0698 0.0958-0.0207 0.18939-0.0434 0.2837-0.0656 6e-3 -2e-3 0.0131-3e-3 0.0196-4e-3z" color="#000000" fill="#30324a" stroke-width=".049686" style="-inkscape-stroke:none"/> <path d="m-163.59 73.245c-0.0176 0.02945-0.0622 0.09398-0.0985 0.20947-0.062 0.19769-0.11787 0.49426-0.16082 0.84471-0.0859 0.70091-0.12318 1.6207-0.13228 2.5285-0.0182 1.8156 0.0727 3.5831 0.0727 3.5831l8e-3 0.16122-0.10654 0.12021s-2.5265 2.812-2.0786 7.0431c0.23883 2.256-0.0856 3.8301-0.57895 4.9641-0.49335 1.134-1.1537 1.8321-1.4924 2.2977 0.022-0.03029-0.0631 0.18629-0.0514 0.51221 0.0116 0.32592 0.0784 0.77002 0.22033 1.2837 0.28391 1.0275 0.86366 2.3397 1.8583 3.6595 1.9892 2.6395 5.6266 5.3281 11.976 5.9415 6.3351 0.61204 10.619-1.6593 13.118-4.2854 1.2493-1.3131 2.047-2.7202 2.4147-3.881 0.18384-0.58038 0.25877-1.0987 0.24002-1.4996-0.0188-0.40091-0.13144-0.66775-0.26896-0.80531-1.4582-1.4585-1.4324-3.6143-1.3312-5.7409 0.10124-2.1266 0.27236-4.2721-0.5669-5.8502l-0.1001-0.18695 0.10332-0.18414s0.73465-1.3286 1.3569-2.8127c0.31114-0.74205 0.59147-1.5221 0.73696-2.1743 0.14547-0.65215 0.10899-1.1611 9e-3 -1.3115-0.0275-0.04137-0.10454-0.10304-0.28264-0.14715-0.1781-0.04396-0.43731-0.06203-0.74018-0.04865-0.60571 0.02681-1.3841 0.17282-2.1393 0.35984-1.5104 0.37403-2.933 0.9014-2.933 0.9014l-0.19742 0.07277-0.16886-0.12464s-6.6159-4.8139-12.661-2.4236l-0.18817 0.07438-0.16886-0.11097s-1.2926-0.85566-2.6881-1.6532c-0.69772-0.39878-1.4216-0.7831-2.0074-1.0333-0.29289-0.12507-0.55234-0.21623-0.74138-0.25972-0.11142-0.02563-0.19077-0.02466-0.23158-0.02413z" color="#000000" fill="#424364" stroke-width=".049686" style="-inkscape-stroke:none"/> <path d="m-166.6 92.555c-0.0198 0.04835-0.0395 0.0971-0.0599 0.14393-0.49335 1.134-1.1537 1.8321-1.4924 2.2977 0.0132-0.01818-0.0111 0.05986-0.031 0.18977 0.35548-0.46397 0.95107-1.1371 1.4072-2.1855 0.0616-0.14165 0.12052-0.29003 0.1761-0.44587z" color="#000000" fill="#6f70a0" stroke-width=".049686" style="-inkscape-stroke:none"/> <path d="m-163.72 73.571c-0.37343 0.08097-0.0936 0.43937-0.12905 0.72851-0.0859 0.70091-0.12318 1.6207-0.13228 2.5285-0.0182 1.8156 0.0728 3.5831 0.0728 3.5831l8e-3 0.16122-0.10654 0.12021s-2.5265 2.812-2.0786 7.0431c0.23882 2.256-0.0856 3.8301-0.57895 4.9641-0.49335 1.134-1.1537 1.8321-1.4924 2.2977 0.022-0.03029-0.0627 0.18629-0.0511 0.51221 0.0116 0.32592 0.0784 0.77002 0.22033 1.2837l2.6186-4.2645s1.5004-2.2823 1.2013-5.9142c1.2451-3.7592 0.24155-11.127 0.44828-13.044z" fill="#313254"/> <path d="m-140.62 84.191c-8e-3 0.01523-0.0382 0.07116-0.0382 0.07116l-0.10333 0.18414 0.10011 0.18696c0.83926 1.5781 0.66814 3.7236 0.56689 5.8502-0.10124 2.1266-0.12698 4.2828 1.3312 5.7413 0.13752 0.13755 0.25022 0.4044 0.26897 0.80531 0.0188 0.40091-0.0562 0.91926-0.24002 1.4996-0.0259 0.0817-0.0543 0.16484-0.0844 0.24887 0.0768-0.18849 0.14461-0.3731 0.20102-0.55121 0.18384-0.58038 0.25878-1.0987 0.24003-1.4996-0.0188-0.40091-0.13145-0.66775-0.26897-0.80531-1.4582-1.4585-1.4324-3.6143-1.3312-5.7409 0.10124-2.1266 0.27237-4.2721-0.56689-5.8502z" color="#000000" fill="#6f70a0" stroke-width=".049686" style="-inkscape-stroke:none"/> <path d="m-163.59 73.245c-0.0176 0.02945-0.0622 0.09398-0.0985 0.20947-0.0108 0.03447-0.0214 0.07555-0.0318 0.11579 4e-3 -0.0066 0.0109-0.01859 0.0137-0.02332 0.0408-6.18e-4 0.12016-0.0014 0.23158 0.02412 0.18904 0.04349 0.44849 0.13465 0.74138 0.25972 0.58578 0.25016 1.3097 0.63449 2.0074 1.0333 1.3955 0.79757 2.6881 1.6532 2.6881 1.6532l0.16886 0.11097 0.18815-0.07438c6.045-2.3904 12.661 2.4236 12.661 2.4236l0.16887 0.12464 0.1974-0.07277s1.4225-0.52737 2.933-0.9014c0.75521-0.18701 1.5336-0.33302 2.1393-0.35984 0.30286-0.01338 0.56207 0.0047 0.74017 0.04865 0.1781 0.04412 0.25518 0.10578 0.28264 0.14715 0.0997 0.15038 0.13622 0.65934-9e-3 1.3115-0.1001 0.44871-0.26646 0.95894-0.46035 1.4747 0.24437-0.61743 0.45722-1.24 0.57694-1.7767 0.14547-0.65215 0.10898-1.1611 9e-3 -1.3115-0.0275-0.04137-0.10455-0.10304-0.28265-0.14715-0.1781-0.04396-0.4373-0.06203-0.74017-0.04865-0.60571 0.02681-1.3841 0.17282-2.1393 0.35983-1.5104 0.37403-2.933 0.9014-2.933 0.9014l-0.19741 0.07277-0.16886-0.12464s-6.6159-4.8139-12.661-2.4236l-0.18816 0.07438-0.16886-0.11096s-1.2926-0.85566-2.6881-1.6532c-0.69772-0.39878-1.4216-0.78311-2.0074-1.0333-0.2929-0.12507-0.55235-0.21623-0.74138-0.25972-0.11142-0.02563-0.19077-0.02466-0.23159-0.02412z" color="#000000" fill="#6f70a0" stroke-width=".049686" style="-inkscape-stroke:none"/> <path d="m-151.62 89.958c-5.0435 4.4145-10.228 0.26391-15.317 3.2899-0.44333 0.81665-0.94201 1.3643-1.2218 1.7489 0.022-0.03029-0.0631 0.18629-0.0514 0.51221 0.0116 0.32592 0.0784 0.77002 0.22032 1.2837 0.28391 1.0275 0.86367 2.3397 1.8583 3.6595 1.9892 2.6395 5.6266 5.3281 11.976 5.9415 6.3351 0.61204 10.619-1.6593 13.118-4.2854 1.2493-1.3131 2.047-2.7202 2.4147-3.881 0.18384-0.58038 0.25878-1.0987 0.24003-1.4996-0.0187-0.40091-0.13145-0.66775-0.26897-0.80531-2.6631-3.2191-6.9275-4.6816-9.9865-5.8868-0.46736-0.17844-2.4599-0.08102-2.9815-0.07755z" fill="#f2f2f2"/> <path d="m-156.86 83.666-5.6404 0.21349s-2.2929 8.5278 8.0696 7.7495c0.94202-0.33002 1.8805-0.85353 2.8144-1.6709 0.52157-0.0035 2.5142-0.10085 2.9816 0.0776 1.0918 0.43017 2.3375 0.89517 3.6088 1.459l-0.46839-2.9579-6.2812-3.29z" fill="#313254"/> <path d="m-163.18 72.511c-0.26349-0.06061-0.50565-0.10582-0.77498 0.02887-0.30219 0.15112-0.38487 0.40733-0.47106 0.68228-0.0862 0.27496-0.14519 0.60576-0.19147 0.98315-0.0925 0.75479-0.12905 1.6919-0.13828 2.6152-0.0179 1.7863 0.0643 3.4023 0.0699 3.5132-0.19473 0.22428-2.6355 3.0859-2.1699 7.4838 0.22719 2.1461-0.0791 3.5632-0.51817 4.5724-0.43902 1.0092-1.0126 1.6058-1.4086 2.1502-0.20575 0.2828-0.21498 0.59252-0.20058 0.99835 0.0144 0.40584 0.0938 0.89937 0.2492 1.4618 0.31084 1.1249 0.92998 2.5191 1.9861 3.9205 2.1122 2.8026 5.9839 5.6152 12.523 6.2469 6.553 0.63309 11.105-1.7348 13.757-4.5222 1.326-1.3937 2.1821-2.8866 2.5924-4.1818 0.20514-0.64762 0.29956-1.2468 0.27504-1.7718-0.0245-0.52496-0.16887-0.9924-0.49538-1.319-1.178-1.1783-1.2033-3.0512-1.1032-5.1543 0.0966-2.0291 0.2929-4.2198-0.58199-6.0463 0.0787-0.14302 0.70861-1.2782 1.3144-2.7231 0.32135-0.76642 0.61677-1.5771 0.77953-2.3067 0.16277-0.72962 0.2399-1.3927-0.10332-1.9101-0.17411-0.26245-0.45254-0.40062-0.74307-0.47258-0.29053-0.07197-0.61252-0.08688-0.96188-0.07142-0.69871 0.03089-1.509 0.18916-2.2915 0.38293-1.4641 0.36257-2.652 0.80538-2.8218 0.86766-0.46862-0.3397-6.7819-4.7773-13.029-2.4632-0.13129-0.0866-1.2355-0.82001-2.5817-1.5895-0.7119-0.40689-1.4517-0.80111-2.0879-1.0728-0.3181-0.13584-0.60874-0.24175-0.87222-0.30239zm-0.427 0.72483c-0.0496 0.02482 0.0632-0.01004 0.25225 0.03345 0.18903 0.04349 0.44865 0.13477 0.74154 0.25984 0.58578 0.25016 1.3096 0.63452 2.0073 1.0333 1.3955 0.79757 2.6881 1.6533 2.6881 1.6533l0.16867 0.11093 0.18843-0.07446c6.045-2.3904 12.661 2.4237 12.661 2.4237l0.16867 0.1246 0.19754-0.0729s1.4223-0.52707 2.9328-0.9011c0.75521-0.18701 1.5338-0.33332 2.1395-0.36014 0.30286-0.01338 0.56193 0.0047 0.74003 0.04863 0.17809 0.04411 0.2552 0.10603 0.28264 0.1474 0.0998 0.15038 0.13636 0.65924-9e-3 1.3114-0.14549 0.65215-0.42585 1.4324-0.73699 2.1745-0.62227 1.4841-1.357 2.8127-1.357 2.8127l-0.10333 0.18387 0.10029 0.1869c0.83926 1.5781 0.66804 3.7237 0.56679 5.8503-0.10124 2.1266-0.12703 4.2824 1.3311 5.7409 0.13752 0.13755 0.25024 0.40445 0.26896 0.80536 0.0188 0.40091-0.0563 0.91943-0.24009 1.4998-0.36767 1.1608-1.1653 2.5679-2.4146 3.881-2.4986 2.6262-6.7833 4.8972-13.118 4.2852-6.3493-0.6134-9.9864-3.302-11.976-5.9415-0.99461-1.3197-1.5745-2.6316-1.8584-3.6591-0.14195-0.51373-0.20876-0.95811-0.22033-1.284-0.0116-0.32592 0.0737-0.54238 0.0517-0.5121 0.33874-0.4656 0.99886-1.1635 1.4922-2.2976 0.49334-1.134 0.81778-2.7084 0.57895-4.9644-0.44791-4.2311 2.0788-7.0432 2.0788-7.0432l0.10637-0.12005-8e-3 -0.16107s-0.0911-1.7675-0.0729-3.5831c9e-3 -0.9078 0.0463-1.8276 0.13221-2.5285 0.043-0.35045 0.0991-0.64719 0.16107-0.84488 0.062-0.19768 0.16-0.26007 0.0775-0.21882z" color="#000000" fill="#1f1f2e" stroke-width=".049686" style="-inkscape-stroke:none"/> <path d="m-158.75 97.699s2.1149 2.5379 6.0426 1.8128c3.9277-0.72512 2.84-2.0847 5.106-1.4502 2.266 0.63448 4.2078 0.79792 4.8533-4.7675 0 0-0.0639 4.164-3.2291 3.9068-3.1651-0.2572-3.3233-3.8262-3.3233-3.8262s-1.4129 4.3546-3.6487 4.9891c-2.2358 0.63448-5.8009-0.66469-5.8009-0.66469z" fill="#ccc"/> <path d="m-162.98 79.04 3.5882-1.9409s-3.3319-2.9297-3.6614-2.8565c-0.32953 0.07321 0.0732 4.7974 0.0732 4.7974z" color="#000000" fill="#f2f2f2" stroke-width=".039749" style="-inkscape-stroke:none"/> <path d="m-141.25 82.81-2.5088-3.2173s4.2269-1.3473 4.4994-1.1481-1.9906 4.3653-1.9906 4.3653z" color="#000000" fill="#f2f2f2" stroke-width=".039749" style="-inkscape-stroke:none"/> <path d="m-152.57 89.73s-0.16409-2.9307 4.3794-3.1617c4.9222-0.25019 10.849-0.69534 11.097 0.13287 0.24731 0.8282-6.7586 5.4579-9.2879 6.134-2.5294 0.67606-6.087 0.562-6.1882-3.1051z" color="#000000" fill="#fff" stroke-width=".054655" style="-inkscape-stroke:none"/> <path d="m-140.89 85.802c-2.1446 0.03937-4.8582 0.21398-7.3152 0.33886-2.3636 0.12015-3.6185 0.97512-4.2244 1.8508-0.60176 0.86973-0.56129 1.7416-0.56072 1.7536 0.0561 1.9687 1.1308 3.1264 2.4769 3.571 1.3472 0.44499 2.9298 0.28412 4.2487-0.06839 1.4049-0.37551 3.7539-1.7077 5.8108-3.0665 1.0285-0.6794 1.9701-1.3627 2.6532-1.942 0.34154-0.28967 0.61686-0.55116 0.81752-0.79169 0.10034-0.12026 0.18355-0.23322 0.24617-0.36318 0.0626-0.12996 0.12368-0.29538 0.0608-0.50601-0.0995-0.33308-0.37007-0.45172-0.61846-0.5364-0.2484-0.08469-0.54233-0.13444-0.8935-0.17171-0.70235-0.07453-1.6295-0.08805-2.7018-0.06839zm0.0152 0.85551c1.0557-0.01937 1.9646-0.0031 2.5969 0.0638 0.30256 0.03213 0.53132 0.07816 0.67621 0.1246-0.0163 0.02194-0.017 0.02949-0.038 0.0547-0.14501 0.17382-0.39571 0.41544-0.71571 0.68685-0.64 0.54279-1.5613 1.2136-2.5696 1.8797-2.0165 1.3321-4.4356 2.6535-5.5601 2.954-1.2105 0.32355-2.6716 0.44338-3.7609 0.08357-1.0893-0.35981-1.842-1.0914-1.8888-2.7869l-2e-3 -0.0062v-0.0062s-0.0377-0.5804 0.41029-1.2278c0.44792-0.64741 1.3835-1.3723 3.5634-1.4831 2.4652-0.12531 5.1764-0.29862 7.2878-0.33735z" color="#000000" fill="#1f1f2e" stroke-width=".049686" style="-inkscape-stroke:none"/> <path d="m-154.73 80.752c-0.45213 6.17e-4 -0.89249 0.01902-1.3127 0.0583-1.4846 0.13884-2.8304 0.52563-3.8138 1.2186-0.98342 0.69298-1.6217 1.6717-1.7445 3.1167-0.13483 1.5865 0.32813 2.6302 1.0972 3.3824 0.76906 0.75225 1.8776 1.2035 3.027 1.453 2.2262 0.48321 4.4654 0.21675 4.6103 0.19902-0.016-0.14536-0.044-0.28046-0.0486-0.43622-4.1e-4 -0.0072-0.0423-0.8566 0.54679-1.7079 0.59156-0.85493 1.8167-1.698 4.1636-1.8173 1.7152-0.08719 3.9369-0.19219 5.6982-0.26455-0.46887-1.0704-1.4204-2.1498-3.6209-3.3873-1.4409-0.8103-4.407-1.5688-7.218-1.7654-0.46849-0.03276-0.93253-0.05009-1.3847-0.04945z" color="#000000" fill="#6ed1cc" stroke-width=".044717" style="-inkscape-stroke:none"/> <path d="m-153.3 80.09c-0.96486-0.06209-1.9178-0.05866-2.8051 0.02427l-0.55465 0.05166 0.0289 0.04863c-1.3566 0.18392-2.6324 0.54198-3.6272 1.243-1.127 0.79416-1.9008 1.9993-2.0392 3.6287-0.14904 1.7538 0.39821 3.056 1.3053 3.9433 0.90709 0.88727 2.14 1.3702 3.3673 1.6366 2.4091 0.52291 4.7969 0.2153 4.8869 0.20362 0.0168 0.0016 0.0952 0.01035 0.22945 0.0228l0.46803 0.04403-0.0927-0.46195c-0.046-0.22854-0.0745-0.47923-0.0821-0.75522v-0.0094s-0.0383-0.60828 0.42396-1.2764c0.46231-0.66814 1.4276-1.4049 3.6242-1.5165 1.8905-0.09611 4.4715-0.21995 6.2773-0.29024l0.45131-0.01821-0.13069-0.43307c-0.43413-1.4385-1.6474-2.7751-4.2137-4.2183-1.6251-0.91393-4.6227-1.6814-7.5173-1.8675zm-0.044 0.71115c2.811 0.19658 5.777 0.95542 7.2179 1.7657 2.2005 1.2375 3.1522 2.3167 3.6211 3.3871-1.7613 0.07236-3.9831 0.17721-5.6983 0.2644-2.3469 0.11929-3.572 0.96247-4.1636 1.8174-0.58907 0.85131-0.54739 1.7008-0.54704 1.708 5e-3 0.15577 0.0326 0.29075 0.0486 0.43612-0.14487 0.01774-2.3842 0.28415-4.6103-0.19906-1.1494-0.24949-2.2579-0.70045-3.027-1.4527-0.76906-0.75225-1.232-1.7961-1.0971-3.3825 0.1228-1.445 0.76103-2.4236 1.7444-3.1166 0.98343-0.69298 2.3295-1.0799 3.8141-1.2187 0.8404-0.07857 1.7602-0.07461 2.6972-0.0091z" color="#000000" fill="#1f1f2e" stroke-width=".049686" style="-inkscape-stroke:none"/> <path d="m-161.53 86.632c0.16219 0.79934 0.53023 1.4095 1.028 1.8965 0.76906 0.75225 1.8776 1.2035 3.027 1.453 2.2262 0.48321 4.4654 0.21675 4.6103 0.19902-0.016-0.14536-0.044-0.28046-0.0486-0.43622-2.1e-4 -0.0055-0.0221-0.511 0.2352-1.1314-1.6002 0.20198-4.8309 0.49417-6.5514-0.16122-1.4441-0.5501-2.0486-1.3139-2.3005-1.8197z" fill="#3ea7a1"/> <path d="m-154.01 81.805c-0.49994-0.0027-0.99476 0.01669-1.4747 0.06151-1.3552 0.12654-2.5923 0.45493-3.501 1.0333-0.90873 0.57833-1.4974 1.3836-1.6211 2.553-0.1358 1.2847 0.271 2.1212 0.96613 2.7291 0.69512 0.60795 1.7066 0.96858 2.7536 1.1623 1.9302 0.35716 3.772 0.16314 4.0756 0.12906 0.0167-0.27864 0.0824-0.77662 0.509-1.3931 0.5772-0.83417 1.7727-1.6658 4.1029-1.7843 1.4887-0.07564 3.0573-0.16448 4.548-0.2352-0.38295-0.904-1.2356-1.811-3.3173-2.8449-1.4902-0.74009-4.3414-1.3961-7.0411-1.4108z" color="#000000" fill="#ffdb87" stroke-width=".03478" style="-inkscape-stroke:none"/> <path d="m-155.54 81.324c-1.4106 0.13171-2.7255 0.46953-3.7427 1.1169-1.0172 0.64735-1.7286 1.6272-1.869 2.9555-0.15105 1.4289 0.33925 2.4876 1.1488 3.1956 0.80954 0.70801 1.9107 1.0846 3.0133 1.2886 2.2052 0.40805 4.4554 0.11853 4.4554 0.11853l0.25072-0.0319-0.0137-0.25376s-0.0391-0.63464 0.43763-1.3235c0.47668-0.6889 1.4702-1.4375 3.6834-1.55 1.6428-0.08347 3.3916-0.18763 5.0054-0.25985l0.34494-0.01517-0.0942-0.33126c-0.34458-1.2137-1.4224-2.3193-3.8111-3.5056-1.9185-0.95278-5.6116-1.7026-8.8089-1.4041zm0.0517 0.54248c3.0717-0.2868 6.7494 0.47223 8.5156 1.3494 2.0818 1.0339 2.9342 1.9406 3.3172 2.8446-1.4907 0.07072-3.0594 0.15989-4.548 0.23553-2.3302 0.11845-3.5256 0.94979-4.1028 1.784-0.42656 0.61648-0.49235 1.1148-0.50905 1.3934-0.3036 0.03408-2.1453 0.228-4.0755-0.12916-1.0471-0.19375-2.0583-0.55451-2.7534-1.1625-0.69513-0.60795-1.1022-1.4444-0.96644-2.7291 0.12361-1.1694 0.71264-1.9745 1.6214-2.5529 0.90873-0.57834 2.1459-0.90677 3.5011-1.0333z" color="#000000" fill="#1f1f2e" stroke-width=".049686" style="-inkscape-stroke:none"/> <path d="m-140.11 86.61c-0.24362 2.06e-4 -0.49858 0.0032-0.76269 8e-3v-4.12e-4c-2.1129 0.03876-4.8243 0.21364-7.2892 0.33893-2.1882 0.11123-3.1388 0.84187-3.5939 1.4996-0.45509 0.65779-0.41652 1.2508-0.41652 1.2508v0.0108c0.0472 1.708 0.81516 2.4595 1.9162 2.8232 1.101 0.36368 2.567 0.24285 3.7825-0.08202 1.1372-0.30398 3.5537-1.6254 5.572-2.9587 1.0092-0.66666 1.9324-1.3396 2.5743-1.884 0.32098-0.27223 0.57092-0.51467 0.71846-0.69153 0.0416-0.04985 0.0538-0.0751 0.0776-0.11096-0.0188-0.0105 0.0128 0.01476-0.0257 0.0016-0.14714-0.05017-0.39787-0.10012-0.71565-0.13388-0.47667-0.05077-1.1065-0.07221-1.8374-0.07156z" color="#000000" fill="#fa7938" stroke-width=".049686" style="-inkscape-stroke:none"/> <path d="m-150.1 89.929c-0.62175 0.0025-1.2501 0.02761-1.5109 0.02935-0.93385 0.81739-1.8723 1.3409-2.8144 1.6709 0.12998-0.0098 0.26122-0.02105 0.39522-0.03377 0 0 1.0578 2.6893 4.7438 2.6893 3.686 0 4.4109-1.8736 4.4109-1.8736l-0.14514-0.91627c-1.2713-0.56387-2.517-1.0289-3.6088-1.459-0.23368-0.08922-0.84895-0.10943-1.4707-0.10694z" fill="#e6e6e6"/> <path d="m-154.01 81.805c-0.49994-0.0027-0.99476 0.01669-1.4747 0.06151-1.3552 0.12654-2.5923 0.45493-3.501 1.0333-0.45752 0.29117-0.83369 0.64009-1.1105 1.0638 0.25716-0.33015 0.58026-0.61112 0.95929-0.85234 0.90873-0.57834 2.1459-0.90673 3.501-1.0333 0.47996-0.04481 0.97478-0.06424 1.4747-0.06151 2.6997 0.01466 5.5509 0.6707 7.0411 1.4108 1.9292 0.9581 2.8028 1.8071 3.2252 2.6459 0.0801-0.0039 0.16354-0.0087 0.24324-0.01245-0.38295-0.904-1.2356-1.811-3.3173-2.8449-1.4902-0.74009-4.3414-1.3961-7.0411-1.4108zm1.6721 6.3307c-0.041 0.05194-0.0797 0.10386-0.11579 0.156-0.33931 0.49037-0.44927 0.90362-0.48889 1.1933 0.0333-0.0035 0.1109-0.0094 0.13106-0.01165 0.0162-0.27007 0.0814-0.74727 0.47362-1.3376z" color="#000000" fill="#fff2ba" stroke-width=".03478" style="-inkscape-stroke:none"/> <path d="m-140.89 85.84c-2.1431 0.03929-4.8563 0.21396-7.3136 0.33886-2.3553 0.11972-3.5953 0.9703-4.194 1.8356-0.5954 0.86055-0.5551 1.7212-0.55464 1.7308 0.0557 1.9561 1.1167 3.0938 2.451 3.5345 1.3354 0.44112 2.9135 0.28129 4.2274-0.06987 1.3921-0.3721 3.7436-1.7028 5.7986-3.0604 1.0275-0.6788 1.9675-1.3613 2.6486-1.939 0.34056-0.28884 0.61636-0.54964 0.81449-0.78713 0.0991-0.11875 0.17967-0.2302 0.24009-0.35558 0.0604-0.12538 0.11633-0.28247 0.0577-0.47866-0.0932-0.3122-0.34906-0.42753-0.59263-0.51057-0.24357-0.08304-0.5348-0.13309-0.88439-0.17019-0.69917-0.07422-1.6272-0.08803-2.6987-0.06839zm0.0152 0.77802c1.0564-0.01937 1.9644-0.0039 2.6 0.0638 0.31778 0.03377 0.56858 0.08356 0.71571 0.13372 0.0385 0.01315 7e-3 -0.01206 0.0258-0.0016-0.0238 0.03587-0.0359 0.06107-0.0775 0.11092-0.14754 0.17686-0.39777 0.41918-0.71875 0.69141-0.64196 0.54446-1.565 1.2176-2.5741 1.8842-2.0184 1.3333-4.435 2.6546-5.5722 2.9586-1.2155 0.32487-2.6812 0.44573-3.7822 0.08205-1.101-0.36368-1.869-1.1153-1.9162-2.8233v-0.0109s-0.0387-0.59282 0.41635-1.2506c0.45511-0.65778 1.4056-1.3886 3.5938-1.4998 2.4649-0.12529 5.1764-0.3001 7.2893-0.33886z" color="#000000" fill="#1f1f2e" stroke-width=".049686" style="-inkscape-stroke:none"/> <path d="m-161.53 92.671s-0.0825 1.307 0.59719 2.7231c0.67971 1.4161 2.1599 2.9548 5.1072 3.4251 2.973 0.47441 4.7849-0.88371 5.7485-2.3371 0.39106-0.58984 0.58854-1.1507 0.76586-1.6639 0.0922 0.36051 0.0409 0.42001 0.23249 0.84639 0.24953 0.55541 0.59839 1.1244 1.1047 1.5667s1.1814 0.74762 1.9997 0.74762c0.82101 0 1.4778-0.3199 1.942-0.7841 0.4642-0.4642 0.74858-1.0565 0.93454-1.6305 0.3719-1.148 0.35253-2.2702 0.35253-2.2702-0.43489 1.8601-1.2849 3.8814-3.2291 3.9068-0.63192 0-1.0989-0.21664-1.4876-0.55616-0.38874-0.33953-0.6884-0.81228-0.90718-1.2992-0.43754-0.97389-0.54248-1.9648-0.54248-1.9648l-0.77194-0.01214s-0.19319 1.4026-1.0424 2.6835c-0.84923 1.2809-2.2695 2.4317-4.9766 1.9997-4.6201-0.66695-5.3744-4.6859-5.8275-5.3808z" color="#000000" fill="#1f1f2e" stroke-width=".049686" style="-inkscape-stroke:none"/> <path d="m-140.11 86.61c-0.24362 2.06e-4 -0.49858 0.0032-0.76269 8e-3v-4.12e-4c-2.1129 0.03876-4.8243 0.21364-7.2892 0.33893-1.4562 0.07402-2.3622 0.42286-2.941 0.84149 0.55112-0.2776 1.3118-0.48691 2.3709-0.54237 2.3929-0.12529 5.0253-0.30017 7.0765-0.33893v4.12e-4c0.2564-0.0049 0.50367-0.0078 0.74017-8e-3 3.0816 8.24e-4 2.1266 0.9828 0.28264 2.4091 0.90144-0.60589 1.7219-1.2071 2.3054-1.7019 0.32098-0.27223 0.57092-0.51467 0.71846-0.69152 0.0416-0.04985 0.0538-0.0751 0.0776-0.11097-0.0188-0.0105 0.0128 0.01476-0.0257 0.0016-0.14714-0.05016-0.39787-0.10012-0.71565-0.13388-0.47667-0.05077-1.1065-0.07221-1.8374-0.07157z" color="#000000" fill="#fdbf96" stroke-width=".049686" style="-inkscape-stroke:none"/> <path d="m-144.66 89.068c-2.6187 0.0092-6.774 0.64539-7.5115 0.76148 0.0776 1.6277 0.83351 2.3563 1.9097 2.7118 1.101 0.36368 2.567 0.24285 3.7825-0.08202 0.71039-0.18988 1.9202-0.77693 3.22-1.5157 0.5574-0.56921 0.90702-1.1357 0.62679-1.5093-0.20429-0.27239-0.9875-0.36991-2.0275-0.36627z" fill="#ec6c2b"/> <path d="m-143.53 87.605a0.34182 1.5382 86.329 0 1-1.5132 0.4396 0.34182 1.5382 86.329 0 1-1.5569-0.24264 0.34182 1.5382 86.329 0 1 1.5132-0.4396 0.34182 1.5382 86.329 0 1 1.5569 0.24264z" fill="#fdbf96" stop-color="#000000" stroke-linecap="round" stroke-linejoin="round" stroke-width=".049686"/> <path d="m-141.91 87.524a0.25715 0.57031 86.86 0 1-0.58778 0.27466 0.25715 0.57031 86.86 0 1-0.55088-0.2416 0.25715 0.57031 86.86 0 1 0.58778-0.27466 0.25715 0.57031 86.86 0 1 0.55088 0.2416z" fill="#fdbf96" stop-color="#000000" stroke-linecap="round" stroke-linejoin="round" stroke-width=".049686"/> <path d="m-161.26 83.405-0.39763 0.0056c-0.6598 9e-3 -3.034 0.04887-4.4435 0.2545l-0.17047 0.02493-0.0507 0.16484c-0.32703 1.0685-0.52634 2.3602-0.38637 3.8155l0.0342 0.35622 0.3341-0.12826c1.0164-0.38996 3.1035-0.76005 4.4901-0.6863l0.36627 0.0197-0.0873-0.35622c-0.12725-0.51937-0.17468-1.1059-0.1186-1.7658 0.0413-0.48614 0.14132-0.92942 0.29108-1.332zm-0.76028 0.56046c-0.10008 0.34677-0.17913 0.70824-0.21228 1.0984-0.0497 0.58457-8e-3 1.1134 0.0812 1.6094-1.3299-0.01779-2.9423 0.25344-4.0293 0.6079-0.0689-1.1644 0.087-2.2007 0.34254-3.0918 1.2192-0.15873 2.9858-0.20925 3.8179-0.22394z" color="#000000" fill="#1f1f2e" stroke-width=".013146" style="-inkscape-stroke:none"/> <path d="m-162.02 83.965c-0.10008 0.34677-0.17913 0.70824-0.21228 1.0984-0.0497 0.58457-8e-3 1.1134 0.0812 1.6094-1.3299-0.01779-2.9423 0.25344-4.0293 0.6079-0.0689-1.1644 0.087-2.2007 0.34254-3.0918 1.2192-0.15873 2.9858-0.20925 3.8179-0.22394z" color="#000000" fill="#d73d5e" stroke-width=".013146" style="-inkscape-stroke:none"/> <path d="m-165.37 92.529c-0.52275 0.17625-1.0446 0.40987-1.5656 0.71967-0.44333 0.81665-0.942 1.3643-1.2218 1.7489 0.022-0.03029-0.0631 0.18629-0.0515 0.51221 0.0116 0.32592 0.0784 0.77002 0.22033 1.2837 0.28391 1.0275 0.86367 2.3397 1.8583 3.6595 1.9892 2.6395 5.6266 5.3281 11.976 5.9415 3.1038 0.29986 5.714-0.0935 7.8645-0.88049-1.803 0.45168-3.8757 0.62797-6.233 0.39442-6.3493-0.62907-9.9867-3.3862-11.976-6.0931-1.7474-2.6463-2.8154-4.2973-0.87124-7.2864z" fill="#ccc"/> <path transform="rotate(36.368)" d="m-54.115 163.11a0.96138 2.2859 0 0 1-0.96138 2.2859 0.96138 2.2859 0 0 1-0.96138-2.2859 0.96138 2.2859 0 0 1 0.96138-2.2859 0.96138 2.2859 0 0 1 0.96138 2.2859z" fill="#fff" stop-color="#000000" stroke-linecap="round" stroke-linejoin="round" stroke-width=".03478"/> <path transform="rotate(36.368)" d="m-54.631 167.28a0.44976 1.0694 0 0 1-0.44976 1.0694 0.44976 1.0694 0 0 1-0.44976-1.0694 0.44976 1.0694 0 0 1 0.44976-1.0694 0.44976 1.0694 0 0 1 0.44976 1.0694z" fill="#fff" stop-color="#000000" stroke-linecap="round" stroke-linejoin="round" stroke-width=".03478"/> <path d="m-163.92 84.031c-0.6386 0.03338-1.3047 0.08157-1.8639 0.15238-0.24749 0.89176-0.3984 1.928-0.3337 3.0801 0.55933-0.17813 1.249-0.33372 1.966-0.44065-5e-3 -0.07018-5e-3 -0.13744-0.0113-0.20867-0.0798-0.96922 0.0388-1.8259 0.24284-2.5832z" color="#000000" fill="#ad314c" stroke-width=".013146" style="-inkscape-stroke:none"/> <path d="m-160.68 75.991c-1.0505 0.07216-1.604 1.9088-2.2973 3.0487l3.5883-1.9407s-0.58697-0.51572-1.291-1.108z" fill="#ccc"/> <path d="m-142.39 79.17c-0.76871 0.22946-1.3766 0.42296-1.3766 0.42296l2.5088 3.2172s0.0746-0.13684 0.19177-0.35662c0.0602-0.5493 0.11218-1.2821 0.0647-1.9463-0.0615-0.86035-0.658-1.1788-1.3887-1.3372z" fill="#ccc"/> <path d="m-153.79 77.179a0.72294 2.034 83.961 0 1-1.9467 0.93291 0.72294 2.034 83.961 0 1-2.0988-0.50495 0.72294 2.034 83.961 0 1 1.9467-0.93291 0.72294 2.034 83.961 0 1 2.0988 0.50495z" fill="#6f70a0" stop-color="#000000" stroke-linecap="round" stroke-linejoin="round" stroke-width=".03478"/> <path d="m-152.17 77.075a0.51518 0.62632 83.961 0 1-0.56865 0.57821 0.51518 0.62632 83.961 0 1-0.67705-0.44643 0.51518 0.62632 83.961 0 1 0.56865-0.57821 0.51518 0.62632 83.961 0 1 0.67705 0.44643z" fill="#6f70a0" stop-color="#000000" stroke-linecap="round" stroke-linejoin="round" stroke-width=".03478"/> <path d="m-154.01 81.805c-0.49994-0.0027-0.99476 0.01669-1.4747 0.06151-0.54345 0.05074-1.0664 0.13573-1.5583 0.2545l-0.0434 0.04784 4.0346 7.3262c0.0363-0.0035 0.0669-6e-3 0.10895-0.0097 0.0316-0.32101 0.145-0.89521 0.54317-1.4707 0.34203-0.49434 0.89391-0.9836 1.7429-1.3348l-3.2546-4.8728c-0.0328-4.12e-4 -0.0658-0.0019-0.0985-0.0021z" fill="#fff2ba"/> <path d="m-152.58 81.87 3.175 4.4471c0.34942-0.06549 0.73186-0.11179 1.1495-0.13509l-2.8722-4.1403c-0.47449-0.07288-0.96117-0.13126-1.4522-0.17167z" fill="#fff2ba"/> <path d="m-154.73 80.752c-0.45213 6.17e-4 -0.89249 0.01902-1.3127 0.0583-1.4846 0.13884-2.8304 0.52563-3.8138 1.2186-0.72874 0.51352-1.2671 1.1846-1.5475 2.0854 0.29449-0.8052 0.80747-1.4168 1.4836-1.8933 0.98342-0.69298 2.3293-1.0798 3.8138-1.2186 0.42021-0.03929 0.86056-0.05766 1.3127-0.0583 0.45212-6.18e-4 0.91617 0.01669 1.3847 0.04945 2.811 0.19658 5.7771 0.9551 7.218 1.7654 2.0734 1.166 3.0373 2.1919 3.534 3.2019 0.0469-0.0019 0.10445-0.0049 0.15077-0.0068-0.46887-1.0704-1.4204-2.1498-3.6209-3.3873-1.4409-0.8103-4.407-1.5688-7.218-1.7654-0.46849-0.03276-0.93253-0.05009-1.3847-0.04945z" color="#000000" fill="#e0f5f4" stroke-width=".044717" style="-inkscape-stroke:none"/> <path d="m-160.61 85.453c-0.1358 1.2847 0.271 2.1212 0.96613 2.7291 0.69512 0.60795 1.7066 0.96858 2.7536 1.1623 0.79777 0.14762 1.5734 0.19835 2.2386 0.20786-5.5877-0.90538-5.9584-4.0993-5.9584-4.0993z" fill="#ffc357"/> </g> </g> </svg>