<?xml version="1.0" encoding="UTF-8" standalone="no"?>
<svg
   xmlns:dc="http://purl.org/dc/elements/1.1/"
   xmlns:cc="http://creativecommons.org/ns#"
   xmlns:rdf="http://www.w3.org/1999/02/22-rdf-syntax-ns#"
   xmlns:svg="http://www.w3.org/2000/svg"
   xmlns="http://www.w3.org/2000/svg"
   width="132.29167cm"
   height="132.29167cm"
   viewBox="0 0 1322.9167 1322.9167"
   version="1.1"
   id="svg8">
  <defs
     id="defs2">
    <clipPath
       id="clipPath4102-3"
       clipPathUnits="userSpaceOnUse">
      <path
         id="path4100-8"
         d="m 757.908,697.899 h 85.146 V 425.722 h -85.146 z" />
    </clipPath>
    <clipPath
       id="clipPath4102-3-1"
       clipPathUnits="userSpaceOnUse">
      <path
         id="path4100-8-1"
         d="m 757.908,697.899 h 85.146 V 425.722 h -85.146 z" />
    </clipPath>
  </defs>
  <metadata
     id="metadata5">
    <rdf:RDF>
      <cc:Work
         rdf:about="">
        <dc:format>image/svg+xml</dc:format>
        <dc:type
           rdf:resource="http://purl.org/dc/dcmitype/StillImage" />
        <dc:title />
      </cc:Work>
    </rdf:RDF>
  </metadata>
  <g
     id="layer1"
     transform="translate(725.74518,406.20577)">
    <g
       id="fr_orange"
       transform="matrix(1.7857143,0,0,1.7857144,18.788022,319.16169)"
       style="stroke-width:0.56">
      <g
         id="g1243"
         transform="translate(0,68.420999)"
         style="stroke-width:0.56">
        <path
           id="path842"
           d="M -416.93859,-474.62675 H 323.89474 V 266.2066 h -740.83333 z"
           style="vector-effect:none;fill:#fba91f;fill-opacity:1;fill-rule:nonzero;stroke:none;stroke-width:1.95999;stroke-linecap:square;stroke-linejoin:miter;stroke-miterlimit:4;stroke-dasharray:none;stroke-dashoffset:0;stroke-opacity:1;paint-order:markers stroke fill" />
        <path
           id="path3523"
           d="m 170.42601,-331.76254 -476.80661,265.283555 6.04784,11.227804 C -227.67664,79.74535 -61.778171,129.94551 69.743732,56.771509 201.26634,-16.402572 249.1068,-185.52055 176.47518,-320.52755 Z"
           style="color:#000000;font-style:normal;font-variant:normal;font-weight:normal;font-stretch:normal;font-size:medium;line-height:normal;font-family:sans-serif;font-variant-ligatures:normal;font-variant-position:normal;font-variant-caps:normal;font-variant-numeric:normal;font-variant-alternates:normal;font-feature-settings:normal;text-indent:0;text-align:start;text-decoration:none;text-decoration-line:none;text-decoration-style:solid;text-decoration-color:#000000;letter-spacing:normal;word-spacing:normal;text-transform:none;writing-mode:lr-tb;direction:ltr;text-orientation:mixed;dominant-baseline:auto;baseline-shift:baseline;text-anchor:start;white-space:normal;shape-padding:0;clip-rule:nonzero;display:inline;overflow:visible;visibility:visible;isolation:auto;mix-blend-mode:normal;color-interpolation:sRGB;color-interpolation-filters:linearRGB;solid-color:#000000;solid-opacity:1;vector-effect:none;fill:#cd8915;fill-opacity:1;fill-rule:nonzero;stroke:none;stroke-width:3.06706;stroke-linecap:butt;stroke-linejoin:miter;stroke-miterlimit:4;stroke-dasharray:none;stroke-dashoffset:0;stroke-opacity:1;color-rendering:auto;image-rendering:auto;shape-rendering:auto;text-rendering:auto;enable-background:accumulate" />
        <path
           style="color:#000000;font-style:normal;font-variant:normal;font-weight:normal;font-stretch:normal;font-size:medium;line-height:normal;font-family:sans-serif;font-variant-ligatures:normal;font-variant-position:normal;font-variant-caps:normal;font-variant-numeric:normal;font-variant-alternates:normal;font-feature-settings:normal;text-indent:0;text-align:start;text-decoration:none;text-decoration-line:none;text-decoration-style:solid;text-decoration-color:#000000;letter-spacing:normal;word-spacing:normal;text-transform:none;writing-mode:lr-tb;direction:ltr;text-orientation:mixed;dominant-baseline:auto;baseline-shift:baseline;text-anchor:start;white-space:normal;shape-padding:0;clip-rule:nonzero;display:inline;overflow:visible;visibility:visible;isolation:auto;mix-blend-mode:normal;color-interpolation:sRGB;color-interpolation-filters:linearRGB;solid-color:#000000;solid-opacity:1;vector-effect:none;fill:#282828;fill-opacity:1;fill-rule:nonzero;stroke:none;stroke-width:3.06706;stroke-linecap:butt;stroke-linejoin:miter;stroke-miterlimit:4;stroke-dasharray:none;stroke-dashoffset:0;stroke-opacity:1;color-rendering:auto;image-rendering:auto;shape-rendering:auto;text-rendering:auto;enable-background:accumulate"
           d="m 143.6818,-335.07224 -469.33492,256.810405 5.89631,10.76718 C -248.92149,61.963771 -86.177115,109.56426 43.284037,38.72743 172.74555,-32.109515 220.39062,-194.82969 149.57947,-324.29818 Z"
           id="path3403" />
        <path
           d="M -314.74543,-73.748944 C -245.91586,52.043824 -88.11707,98.198718 37.680935,29.366266 163.47932,-39.466479 209.66787,-197.23632 140.86057,-323.0413 Z"
           style="fill:#fba91f;fill-opacity:1;fill-rule:nonzero;stroke:none;stroke-width:0.197554"
           id="path3368" />
        <path
           style="fill:#fbc363;fill-opacity:1;fill-rule:nonzero;stroke:none;stroke-width:0.197554"
           d="m 126.74038,-313.92266 -425.1025,232.601762 C -236.107,32.456544 -95.228628,76.417561 20.17039,20.188117 L 20.359228,20.527185 43.381397,7.7333239 43.180117,7.371034 C 150.68,-60.180275 188.45559,-201.07903 126.74056,-313.92287"
           id="path3370" />
        <path
           style="fill:#fba91f;fill-opacity:1;fill-rule:nonzero;stroke:none;stroke-width:0.197554"
           d="m -52.741164,-206.94669 171.281424,-95.22043 c 21.71664,47.868 25.75384,99.91803 14.35799,148.20503 z"
           id="path3414" />
        <path
           style="fill:#fba91f;fill-opacity:1;fill-rule:nonzero;stroke:none;stroke-width:0.197554"
           d="M 24.409606,-18.293263 -70.060409,-188.22788 117.94634,-134.56819 C 100.74915,-87.972278 68.822483,-46.641337 24.409606,-18.293263"
           id="path3412" />
        <path
           style="fill:#fba91f;fill-opacity:1;fill-rule:nonzero;stroke:none;stroke-width:0.197554"
           d="m -283.95073,-85.057773 176.73184,-91.616687 -59.28793,186.914947 c -47.32469,-17.4781574 -89.14075,-50.117216 -117.44391,-95.29826"
           id="path3408" />
        <path
           style="fill:#fba91f;fill-opacity:1;fill-rule:nonzero;stroke:none;stroke-width:0.197554"
           d="m 140.86146,-323.0403 -18.2603,9.99067 C 183.44268,-201.80292 146.20103,-62.899868 40.222688,3.6953006 L 40.422819,4.0511584 17.726726,16.663644 17.538596,16.331639 C -96.226267,71.764923 -235.11034,28.42638 -296.48498,-83.739079 l -18.26037,9.990615 C -245.91575,52.044414 -88.115966,98.199302 37.682078,29.366781 163.48044,-39.465795 209.66879,-197.23554 140.86131,-323.0405 Z"
           id="path3420" />
        <path
           style="fill:#d38604;fill-opacity:1;fill-rule:nonzero;stroke:none;stroke-width:0.197554"
           d="m 140.86146,-323.0403 -4.0219,2.20082 C 198.90359,-196.55663 152.00942,-44.42697 29.109091,22.819867 -62.194842,72.778388 -170.34811,62.147219 -249.11555,4.4743981 -169.75763,67.838046 -56.979834,81.162993 37.682106,29.366942 163.48054,-39.46559 209.66888,-197.23534 140.86146,-323.0403 Z"
           id="path3423" />
        <path
           style="fill:#f79d05;fill-opacity:1;fill-rule:nonzero;stroke:none;stroke-width:0.197554"
           d="m -107.21889,-176.67351 -0.52069,0.26882 -0.55386,3.11493 z m -3.89423,2.01935 -172.83702,89.594784 c 28.30314,45.181165 70.11859,77.8208283 117.44327,95.298932 l 0.0321,-0.09974 c -37.45734,-18.7246677 -83.9947,-55.438138 -91.07404,-78.26645 -7.07943,-22.828233 146.4362,-106.526606 146.4362,-106.526606 z"
           id="path3428" />
        <path
           style="fill:#ec9605;fill-opacity:1;fill-rule:nonzero;stroke:none;stroke-width:0.197554"
           d="m -107.21889,-176.67351 -176.73125,91.614134 c 27.45064,43.820384 67.61203,75.8430458 113.18239,93.6780986 -43.6043,-18.1661371 -100.48706,-69.1659856 -99.035,-86.0531046 1.4519,-16.88735 162.10749,-98.906988 162.10749,-98.906988 l -3.49549,12.1903 z"
           id="path3433" />
        <path
           style="fill:#fcc974;fill-opacity:1;fill-rule:nonzero;stroke:none;stroke-width:0.197554"
           d="m -107.21889,-176.67351 -6.32958,3.28152 -57.90133,181.7402689 c 1.64102,0.6480352 3.28815,1.2801575 4.94293,1.8912771 z"
           id="path3443" />
        <path
           style="fill:#f79d05;fill-opacity:1;stroke:none;stroke-width:0.148166px;stroke-linecap:butt;stroke-linejoin:miter;stroke-opacity:1"
           d="m -70.061392,-188.22874 94.471885,169.933936 c 7.063768,-4.508678 13.809037,-9.347551 20.232012,-14.48209 C 34.213694,-35.207871 20.479546,-46.904684 2.9955819,-77.46508 -45.827485,-162.80297 -37.635706,-172.3749 23.937338,-161.39985 Z"
           id="path3460" />
        <path
           id="path3473"
           d="m -167.3426,-89.648103 c 0,0 -29.01297,66.101342 -19.16809,73.491878 9.84482,7.3907653 40.496,-68.505305 35.65152,-86.293815 -4.84445,-17.78857 -16.48343,12.801937 -16.48343,12.801937 z"
           style="fill:#fbb43b;fill-opacity:1;stroke:none;stroke-width:0.148166px;stroke-linecap:butt;stroke-linejoin:miter;stroke-opacity:1" />
        <path
           style="fill:#fbb43b;fill-opacity:1;stroke:none;stroke-width:0.148166px;stroke-linecap:butt;stroke-linejoin:miter;stroke-opacity:1"
           d="m 55.327023,-58.46842 c 6.339925,-5.882082 51.668787,-53.56127 35.446791,-67.5564 -16.221963,-13.9953 -24.762003,41.865161 -35.446791,67.5564 z"
           id="path3475" />
        <path
           style="fill:#fbb43b;fill-opacity:1;stroke:none;stroke-width:0.148166px;stroke-linecap:butt;stroke-linejoin:miter;stroke-opacity:1"
           d="m 105.58563,-274.20279 c 18.15734,-7.23758 26.92079,44.65111 23.32328,88.75511 -3.59755,44.10389 -41.480564,-81.51759 -23.32328,-88.75511 z"
           id="path3477" />
        <path
           style="fill:#f79d05;fill-opacity:1;stroke:none;stroke-width:0.148166px;stroke-linecap:butt;stroke-linejoin:miter;stroke-opacity:1"
           d="m 118.54041,-302.16664 -171.280318,95.21955 126.181331,36.0132 c -31.212642,-12.17145 -90.543188,-35.88547 -90.815223,-40.44755 -0.368547,-6.18446 135.91421,-90.7852 135.91421,-90.7852 z"
           id="path3479" />
        <path
           style="fill:#282828;fill-opacity:1;stroke:none;stroke-width:0.148166px;stroke-linecap:butt;stroke-linejoin:miter;stroke-opacity:1"
           d="m -283.95073,-85.057773 c 0,0 22.26489,59.157653 112.50092,93.4059993 0,0 -76.00984,-27.6670303 -106.90678,-91.8358863 l 62.05415,-36.60744 z"
           id="path3503" />
        <path
           style="fill:#282828;fill-opacity:1;stroke:none;stroke-width:0.148166px;stroke-linecap:butt;stroke-linejoin:miter;stroke-opacity:1"
           d="m -113.54847,-173.39199 c 0,0 -21.86515,81.896124 -33.98536,110.399759 0,0 20.35304,-82.120659 33.98536,-110.399759 z"
           id="path3505" />
        <path
           style="fill:#1a1a1a;fill-opacity:1;stroke:none;stroke-width:0.148166px;stroke-linecap:butt;stroke-linejoin:miter;stroke-opacity:1"
           d="m -157.51438,-37.3564 c 0,0 -7.23858,16.429676 -7.33832,23.620876 -0.0997,7.1911482 7.42422,-20.796584 7.33832,-23.620876 z"
           id="path3507" />
        <path
           style="fill:#fba91f;fill-opacity:1;fill-rule:nonzero;stroke:none;stroke-width:0.197554"
           d="M -148.2353,15.180439 -91.681836,-182.96579 7.9153014,-3.8081275 C -42.248819,20.204646 -97.00846,25.711151 -148.2353,15.180439"
           id="path3410" />
        <path
           style="fill:#f79d05;fill-opacity:1;stroke:none;stroke-width:0.148166px;stroke-linecap:butt;stroke-linejoin:miter;stroke-opacity:1"
           d="M -91.680527,-182.96559 -148.23599,15.180008 c 22.35469,4.595391 45.38279,6.138086 68.407645,4.420289 -4.865524,-2.344461 -10.249535,-5.310012 -16.228951,-9.145305 -33.928824,-21.762567 6.370814,-182.515912 4.376769,-193.420582 z"
           id="path3448" />
        <path
           style="fill:#fab031;fill-opacity:1;stroke:none;stroke-width:0.148166px;stroke-linecap:butt;stroke-linejoin:miter;stroke-opacity:1"
           d="m -91.680527,-182.96559 c 0,0 99.5953031,179.1585515 79.246234,187.7914737 6.8516508,-2.5548346 13.6422443,-5.42259894 20.3490691,-8.6329222 z"
           id="path3455" />
        <path
           style="fill:#fbb43b;fill-opacity:1;stroke:none;stroke-width:0.148166px;stroke-linecap:butt;stroke-linejoin:miter;stroke-opacity:1"
           d="m -55.388881,-57.818817 c 0,0 21.432807,62.0474144 31.920088,54.9725562 10.487159,-7.074615 -15.766317,-75.4672412 -29.355084,-78.6200772 -13.588794,-3.152998 -2.565004,23.647521 -2.565004,23.647521 z"
           id="path3471" />
        <path
           style="fill:#282828;fill-opacity:1;stroke:none;stroke-width:0.148166px;stroke-linecap:butt;stroke-linejoin:miter;stroke-opacity:1"
           d="m -91.709179,-182.16464 c 0,0 -40.937951,120.055077 -56.296591,197.241389 0,0 23.04564,9.138285 68.094624,4.39956 l -68.094624,-4.39956 c 0,0 47.56749,-157.769589 56.296591,-197.241389 z"
           id="path3509" />
        <path
           style="fill:#282828;fill-opacity:1;stroke:none;stroke-width:0.148166px;stroke-linecap:butt;stroke-linejoin:miter;stroke-opacity:1"
           d="m -58.909176,-123.76907 c 0,0 37.525157,61.822324 45.763004,82.250042 0,0 -40.373038,-65.905292 -45.763004,-82.250042 z"
           id="path3511" />
        <path
           style="fill:#282828;fill-opacity:1;stroke:none;stroke-width:0.148166px;stroke-linecap:butt;stroke-linejoin:miter;stroke-opacity:1"
           d="m -91.680527,-182.96559 c 0,0 18.910964,27.05721 21.672979,38.57302 0,0 -19.706805,-29.79853 -21.672979,-38.57302 z"
           id="path3513" />
        <path
           style="fill:#282828;fill-opacity:1;stroke:none;stroke-width:0.148166px;stroke-linecap:butt;stroke-linejoin:miter;stroke-opacity:1"
           d="m -75.995891,-192.02317 c 0,0 58.859184,107.11337 75.52165377,128.780743 0,0 -63.61383877,-118.690223 -69.58715477,-124.986313 0,0 43.492066,13.30727 55.604247,16.12099 0,0 -58.170155,-21.32555 -61.538746,-19.91542 z"
           id="path3515" />
        <path
           style="fill:#282828;fill-opacity:1;stroke:none;stroke-width:0.148166px;stroke-linecap:butt;stroke-linejoin:miter;stroke-opacity:1"
           d="M 24.410493,-18.294804 64.440844,-52.90076 c 0,0 -4.939446,13.247352 -40.030351,34.605956 z"
           id="path3517" />
        <path
           style="fill:#282828;fill-opacity:1;stroke:none;stroke-width:0.148166px;stroke-linecap:butt;stroke-linejoin:miter;stroke-opacity:1"
           d="m -52.739908,-206.94709 c 0,0 42.8457005,-29.97275 85.640178,-47.6098 l -81.635237,47.32522 c 0,0 18.196516,5.65321 31.406276,9.9839 0,0 -27.413379,-5.72262 -35.411217,-9.69932 z"
           id="path2178" />
        <path
           style="fill:#282828;fill-opacity:1;stroke:none;stroke-width:0.148166px;stroke-linecap:butt;stroke-linejoin:miter;stroke-opacity:1"
           d="m 54.748991,-267.69859 c 1.47597,-1.09954 58.469859,-33.3993 63.791269,-34.46853 0,0 -52.223262,31.35856 -63.791269,34.46853 z"
           id="path2180" />
        <path
           style="fill:#282828;fill-opacity:1;stroke:none;stroke-width:0.148166px;stroke-linecap:butt;stroke-linejoin:miter;stroke-opacity:1"
           d="m 130.67418,-269.75508 c 0,0 16.51236,62.63452 2.22407,115.79299 l -39.242622,-10.52787 c 0,0 22.339732,1.02887 36.786422,7.0199 0,0 13.78476,-45.72761 0.23213,-112.28502 z"
           id="path2182" />
        <path
           style="fill:#282828;fill-opacity:1;stroke:none;stroke-width:0.148166px;stroke-linecap:butt;stroke-linejoin:miter;stroke-opacity:1"
           d="m 50.055629,-153.62786 c 0,0 33.249146,14.26205 50.661961,14.33679 z"
           id="path2184" />
      </g>
    </g>
  </g>
</svg>
